HIERARCHY
ROOT Hips
{
	OFFSET -0.001795 -0.223333 0.028219
	CHANNELS 6 Xposition Yposition Zposition Zrotation Yrotation Xrotation 
	JOINT LeftUpLeg
	{
		OFFSET 0.069520 -0.091406 -0.006815
		CHANNELS 3 Zrotation Yrotation Xrotation
		JOINT LeftLeg
		{
			OFFSET 0.034277 -0.375199 -0.004496
			CHANNELS 3 Zrotation Yrotation Xrotation
			JOINT LeftFoot
			{
				OFFSET -0.013596 -0.397961 -0.043693
				CHANNELS 3 Zrotation Yrotation Xrotation
				JOINT LeftToe
				{
					OFFSET 0.026358 -0.055791 0.119288
					CHANNELS 3 Zrotation Yrotation Xrotation
					End Site
					{
						OFFSET 0.000000 0.000000 0.000000
					}
				}
			}
		}
	}
	JOINT RightUpLeg
	{
		OFFSET -0.067670 -0.090522 -0.004320
		CHANNELS 3 Zrotation Yrotation Xrotation
		JOINT RightLeg
		{
			OFFSET -0.038290 -0.382569 -0.008850
			CHANNELS 3 Zrotation Yrotation Xrotation
			JOINT RightFoot
			{
				OFFSET 0.015774 -0.398415 -0.042312
				CHANNELS 3 Zrotation Yrotation Xrotation
				JOINT RightToe
				{
					OFFSET -0.025372 -0.048144 0.123348
					CHANNELS 3 Zrotation Yrotation Xrotation
					End Site
					{
						OFFSET 0.000000 0.000000 0.000000
					}
				}
			}
		}
	}
	JOINT Spine
	{
		OFFSET -0.002533 0.108963 -0.026696
		CHANNELS 3 Zrotation Yrotation Xrotation
		JOINT Spine1
		{
			OFFSET 0.005487 0.135180 0.001092
			CHANNELS 3 Zrotation Yrotation Xrotation
			JOINT Spine2
			{
				OFFSET 0.001457 0.052922 0.025425
				CHANNELS 3 Zrotation Yrotation Xrotation
				JOINT Neck
				{
					OFFSET -0.002778 0.213870 -0.042857
					CHANNELS 3 Zrotation Yrotation Xrotation
					JOINT Head
					{
						OFFSET 0.005152 0.064970 0.051349
						CHANNELS 3 Zrotation Yrotation Xrotation
						End Site
						{
							OFFSET 0.000000 0.000000 0.000000
						}
					}
				}
				JOINT LeftShoulder
				{
					OFFSET 0.078845 0.121749 -0.034090
					CHANNELS 3 Zrotation Yrotation Xrotation
					JOINT LeftArm
					{
						OFFSET 0.090977 0.030469 -0.008868
						CHANNELS 3 Zrotation Yrotation Xrotation
						JOINT LeftForeArm
						{
							OFFSET 0.259612 -0.012772 -0.027456
							CHANNELS 3 Zrotation Yrotation Xrotation
							JOINT LeftHand
							{
								OFFSET 0.249234 0.008986 -0.001171
								CHANNELS 3 Zrotation Yrotation Xrotation
								End Site
								{
									OFFSET 0.000000 0.000000 0.000000
								}
							}
						}
					}
				}
				JOINT RightShoulder
				{
					OFFSET -0.081759 0.118833 -0.038615
					CHANNELS 3 Zrotation Yrotation Xrotation
					JOINT RightArm
					{
						OFFSET -0.096012 0.032551 -0.009143
						CHANNELS 3 Zrotation Yrotation Xrotation
						JOINT RightForeArm
						{
							OFFSET -0.253742 -0.013329 -0.021401
							CHANNELS 3 Zrotation Yrotation Xrotation
							JOINT RightHand
							{
								OFFSET -0.255298 0.007772 -0.005559
								CHANNELS 3 Zrotation Yrotation Xrotation
								End Site
								{
									OFFSET 0.000000 0.000000 0.000000
								}
							}
						}
					}
				}
			}
		}
	}
}
MOTION
Frames: 6
Frame Time: 0.050000
0.000000 0.941313 0.000000 0.256421 -4.840990 -0.775762 3.822281 0.182608 2.872673 -1.437311 0.189352 -0.836301 5.592495 13.166985 11.340092 0.000000 0.000000 0.000000 -0.573866 0.073545 -0.608524 1.063872 0.060274 4.760254 6.341457 13.337494 3.372571 0.000000 0.000000 0.000000 6.468357 -0.310551 2.994081 -2.627656 1.305459 2.003486 -3.872159 1.779270 7.685928 5.590357 -2.054091 -18.152708 0.000000 0.000000 0.000000 -27.205291 -15.925108 7.565676 -49.334963 -9.180060 -2.481205 6.051674 -17.200354 -0.215493 0.000000 0.000000 0.000000 25.921385 6.744553 1.767144 59.070821 7.490370 -2.391094 -8.297328 19.075006 -0.538718 0.000000 0.000000 0.000000 
-0.000919 0.940798 -0.000872 -0.299119 -4.429640 -0.790039 4.808260 0.200775 3.705451 -1.897148 0.266445 -2.394455 5.304243 12.728201 11.225467 0.000000 0.000000 0.000000 0.212061 0.056845 -0.633397 0.942762 0.079570 4.896671 6.160617 12.972397 3.309990 0.000000 0.000000 0.000000 7.758122 -0.317678 2.743847 -2.528838 1.273291 3.188356 -5.242027 1.374367 6.498787 5.510668 -1.996922 -17.819086 0.000000 0.000000 0.000000 -26.833154 -17.082321 8.141362 -48.473205 -11.805495 -1.271453 8.691059 -16.776039 -0.596340 0.000000 0.000000 0.000000 25.895018 6.140660 1.415525 59.777763 6.197602 -2.961692 -8.024607 21.382579 -0.583512 0.000000 0.000000 0.000000 
-0.002017 0.940531 -0.002138 0.107639 -3.298382 -0.903271 4.803143 0.158602 3.197746 -2.351764 0.298764 -1.797862 4.753412 11.880350 10.979813 0.000000 0.000000 0.000000 0.104600 0.027081 -0.299096 0.664597 0.098778 4.526908 5.610754 12.031993 2.891936 0.000000 0.000000 0.000000 7.600661 -0.288555 2.478874 -2.216187 1.084177 1.868151 -5.942117 0.312355 7.689126 4.352460 -1.372233 -17.965689 0.000000 0.000000 0.000000 -25.541403 -16.704970 8.022123 -46.798199 -16.600546 0.419544 11.432459 -15.821657 -0.900712 0.000000 0.000000 0.000000 25.253398 6.129628 1.308286 59.067638 5.284699 -3.471859 -7.392170 20.840557 -0.471566 0.000000 0.000000 0.000000 
-0.003546 0.940260 -0.003349 -0.033562 -2.542915 -1.322183 5.319099 0.139117 3.229917 -2.664517 0.322396 -1.371745 4.384733 11.292623 10.682250 0.000000 0.000000 0.000000 0.673426 -0.042386 0.256352 0.238075 0.148767 4.367396 5.269049 11.391129 2.684725 0.000000 0.000000 0.000000 7.785663 -0.214509 1.831955 -2.179668 1.069270 3.101312 -6.148223 0.139024 7.166099 3.729116 -1.004447 -17.483953 0.000000 0.000000 0.000000 -24.591786 -19.252570 9.362125 -44.121291 -20.510714 1.845431 16.158122 -17.362390 -1.708562 0.000000 0.000000 0.000000 24.910040 5.309266 0.914641 59.314939 4.519879 -3.837431 -8.251288 22.436025 -0.658087 0.000000 0.000000 0.000000 
-0.005368 0.940388 -0.004796 -0.029000 -1.454877 -1.796540 5.270734 0.127692 3.185753 -2.190992 0.261273 -0.861299 3.876420 10.510865 10.491820 0.000000 0.000000 0.000000 0.961033 -0.098960 0.738219 0.115568 0.165267 4.442812 4.833401 10.462507 2.556866 0.000000 0.000000 0.000000 7.736278 -0.197530 1.752794 -1.824121 0.874036 2.746522 -6.621221 -0.199724 7.693924 3.315085 -0.775959 -17.089262 0.000000 0.000000 0.000000 -23.676507 -20.345890 9.834190 -40.511894 -25.834334 3.346478 22.300741 -19.389826 -2.960021 0.000000 0.000000 0.000000 23.991728 5.153829 0.983341 59.574903 4.328114 -4.030119 -7.766905 23.444100 -0.580729 0.000000 0.000000 0.000000 
-0.007243 0.940471 -0.005907 -0.043816 -0.659064 -1.976068 5.339678 0.110199 3.068187 -1.941908 0.228860 -0.677862 3.490191 9.929985 10.436741 0.000000 0.000000 0.000000 1.097227 -0.183255 1.489390 0.237847 0.105655 3.433018 4.628231 9.849795 2.742301 0.000000 0.000000 0.000000 7.635858 -0.205372 1.855395 -1.703123 0.803401 2.837749 -6.598845 -0.451733 7.199188 2.716253 -0.463390 -16.284104 0.000000 0.000000 0.000000 -22.556993 -21.086322 10.042462 -38.285544 -29.198247 4.203637 29.902974 -21.717344 -4.824558 0.000000 0.000000 0.000000 23.208471 4.691877 0.786754 59.412932 3.936231 -4.174312 -8.163730 24.388234 -0.682474 0.000000 0.000000 0.000000 
